<mxfile host="app.diagrams.net" modified="2023-06-19T16:43:18.121Z" agent="Mozilla/5.0 (Windows NT 10.0; Win64; x64) AppleWebKit/537.36 (KHTML, like Gecko) Chrome/114.0.0.0 Safari/537.36 Edg/114.0.1823.43" etag="uGi7R4dobP-V8yWxw2_A" version="21.3.8" type="onedrive">
  <diagram name="Page-1" id="wijydSX3oih-nvFUlOa5">
    <mxGraphModel dx="1354" dy="746" grid="1" gridSize="10" guides="1" tooltips="1" connect="1" arrows="1" fold="1" page="1" pageScale="1" pageWidth="827" pageHeight="1169" math="0" shadow="0">
      <root>
        <mxCell id="0" />
        <mxCell id="1" parent="0" />
        <mxCell id="sD3pybmn06e3ip4XcGQT-9" value="" style="rounded=0;whiteSpace=wrap;html=1;fillColor=#f5f5f5;fontColor=#333333;strokeColor=#666666;fontFamily=Times New Roman;" parent="1" vertex="1">
          <mxGeometry x="440" y="430" width="10" height="20" as="geometry" />
        </mxCell>
        <mxCell id="sD3pybmn06e3ip4XcGQT-15" value="" style="endArrow=none;html=1;rounded=0;entryX=0;entryY=1;entryDx=0;entryDy=0;fillColor=#ffe6cc;strokeColor=#d79b00;fontFamily=Times New Roman;" parent="1" edge="1">
          <mxGeometry width="50" height="50" relative="1" as="geometry">
            <mxPoint x="370" y="490" as="sourcePoint" />
            <mxPoint x="370" y="450" as="targetPoint" />
          </mxGeometry>
        </mxCell>
        <mxCell id="sD3pybmn06e3ip4XcGQT-3" value="" style="endArrow=none;html=1;rounded=0;entryX=0.67;entryY=1.04;entryDx=0;entryDy=0;entryPerimeter=0;fillColor=#ffe6cc;strokeColor=#d79b00;fontFamily=Times New Roman;" parent="1" edge="1">
          <mxGeometry width="50" height="50" relative="1" as="geometry">
            <mxPoint x="390" y="509.6" as="sourcePoint" />
            <mxPoint x="390.19999999999993" y="490.0000000000001" as="targetPoint" />
          </mxGeometry>
        </mxCell>
        <mxCell id="gtd3gg2QgJ_gOTGWygLw-4" value="" style="endArrow=none;html=1;rounded=0;fontFamily=Times New Roman;" parent="1" edge="1">
          <mxGeometry width="50" height="50" relative="1" as="geometry">
            <mxPoint x="400" y="490" as="sourcePoint" />
            <mxPoint x="420" y="510" as="targetPoint" />
            <Array as="points">
              <mxPoint x="420" y="480" />
            </Array>
          </mxGeometry>
        </mxCell>
        <mxCell id="gtd3gg2QgJ_gOTGWygLw-5" value="" style="endArrow=none;html=1;rounded=0;fontFamily=Times New Roman;" parent="1" edge="1">
          <mxGeometry width="50" height="50" relative="1" as="geometry">
            <mxPoint x="400" y="490" as="sourcePoint" />
            <mxPoint x="410" y="510" as="targetPoint" />
            <Array as="points">
              <mxPoint x="410" y="480" />
            </Array>
          </mxGeometry>
        </mxCell>
        <mxCell id="sD3pybmn06e3ip4XcGQT-1" value="" style="shape=parallelogram;perimeter=parallelogramPerimeter;whiteSpace=wrap;html=1;fixedSize=1;fillColor=#ffe6cc;strokeColor=#d79b00;fontFamily=Times New Roman;" parent="1" vertex="1">
          <mxGeometry x="370" y="490" width="60" height="10" as="geometry" />
        </mxCell>
        <mxCell id="gtd3gg2QgJ_gOTGWygLw-8" value="" style="rounded=0;whiteSpace=wrap;html=1;fillColor=#f5f5f5;fontColor=#333333;strokeColor=#666666;fontFamily=Times New Roman;" parent="1" vertex="1">
          <mxGeometry x="405" y="390" width="80" height="50" as="geometry" />
        </mxCell>
        <mxCell id="gtd3gg2QgJ_gOTGWygLw-7" value="" style="shape=parallelogram;perimeter=parallelogramPerimeter;whiteSpace=wrap;html=1;fixedSize=1;direction=east;fillColor=#ffe6cc;strokeColor=#d79b00;fontFamily=Times New Roman;" parent="1" vertex="1">
          <mxGeometry x="350" y="450" width="170" height="20" as="geometry" />
        </mxCell>
        <mxCell id="gtd3gg2QgJ_gOTGWygLw-18" value="" style="shape=parallelogram;perimeter=parallelogramPerimeter;whiteSpace=wrap;html=1;fixedSize=1;direction=west;fillColor=#efff0f;strokeColor=#d6b656;fontFamily=Times New Roman;" parent="1" vertex="1">
          <mxGeometry x="375" y="455" width="35" height="10" as="geometry" />
        </mxCell>
        <mxCell id="gtd3gg2QgJ_gOTGWygLw-9" value="" style="endArrow=none;html=1;rounded=0;exitX=0.105;exitY=1;exitDx=0;exitDy=0;exitPerimeter=0;fontFamily=Times New Roman;" parent="1" source="gtd3gg2QgJ_gOTGWygLw-7" edge="1">
          <mxGeometry width="50" height="50" relative="1" as="geometry">
            <mxPoint x="350" y="480" as="sourcePoint" />
            <mxPoint x="400" y="440" as="targetPoint" />
          </mxGeometry>
        </mxCell>
        <mxCell id="gtd3gg2QgJ_gOTGWygLw-11" value="" style="endArrow=none;html=1;rounded=0;exitX=0.106;exitY=1.011;exitDx=0;exitDy=0;exitPerimeter=0;fontFamily=Times New Roman;" parent="1" source="gtd3gg2QgJ_gOTGWygLw-7" edge="1">
          <mxGeometry width="50" height="50" relative="1" as="geometry">
            <mxPoint x="370" y="480" as="sourcePoint" />
            <mxPoint x="390" y="460" as="targetPoint" />
          </mxGeometry>
        </mxCell>
        <mxCell id="gtd3gg2QgJ_gOTGWygLw-3" value="" style="endArrow=none;html=1;rounded=0;exitX=0.5;exitY=1;exitDx=0;exitDy=0;entryX=0.5;entryY=0;entryDx=0;entryDy=0;fontFamily=Times New Roman;" parent="1" source="gtd3gg2QgJ_gOTGWygLw-2" target="sD3pybmn06e3ip4XcGQT-1" edge="1">
          <mxGeometry width="50" height="50" relative="1" as="geometry">
            <mxPoint x="420" y="450" as="sourcePoint" />
            <mxPoint x="400" y="490" as="targetPoint" />
            <Array as="points">
              <mxPoint x="400" y="440" />
            </Array>
          </mxGeometry>
        </mxCell>
        <mxCell id="sD3pybmn06e3ip4XcGQT-2" value="" style="endArrow=none;html=1;rounded=0;entryX=0.67;entryY=1.04;entryDx=0;entryDy=0;entryPerimeter=0;fillColor=#ffe6cc;strokeColor=#d79b00;fontFamily=Times New Roman;" parent="1" target="sD3pybmn06e3ip4XcGQT-1" edge="1">
          <mxGeometry width="50" height="50" relative="1" as="geometry">
            <mxPoint x="410" y="520" as="sourcePoint" />
            <mxPoint x="450" y="470" as="targetPoint" />
          </mxGeometry>
        </mxCell>
        <mxCell id="sD3pybmn06e3ip4XcGQT-4" value="" style="endArrow=none;html=1;rounded=0;entryX=0.67;entryY=1.04;entryDx=0;entryDy=0;entryPerimeter=0;fillColor=#ffe6cc;strokeColor=#d79b00;fontFamily=Times New Roman;" parent="1" edge="1">
          <mxGeometry width="50" height="50" relative="1" as="geometry">
            <mxPoint x="430" y="509.6" as="sourcePoint" />
            <mxPoint x="430.19999999999993" y="490.0000000000001" as="targetPoint" />
          </mxGeometry>
        </mxCell>
        <mxCell id="sD3pybmn06e3ip4XcGQT-5" value="" style="endArrow=none;html=1;rounded=0;entryX=0.67;entryY=1.04;entryDx=0;entryDy=0;entryPerimeter=0;fillColor=#ffe6cc;strokeColor=#d79b00;fontFamily=Times New Roman;" parent="1" edge="1">
          <mxGeometry width="50" height="50" relative="1" as="geometry">
            <mxPoint x="370" y="519.6" as="sourcePoint" />
            <mxPoint x="370.19999999999993" y="500.0000000000001" as="targetPoint" />
          </mxGeometry>
        </mxCell>
        <mxCell id="sD3pybmn06e3ip4XcGQT-8" value="" style="rounded=0;whiteSpace=wrap;html=1;fillColor=#969696;fontColor=#333333;strokeColor=#666666;fontFamily=Times New Roman;" parent="1" vertex="1">
          <mxGeometry x="410" y="400" width="70" height="30" as="geometry" />
        </mxCell>
        <mxCell id="sD3pybmn06e3ip4XcGQT-7" value="" style="ellipse;whiteSpace=wrap;html=1;aspect=fixed;fillColor=#dae8fc;strokeColor=#6c8ebf;fontFamily=Times New Roman;" parent="1" vertex="1">
          <mxGeometry x="435" y="405" width="20" height="20" as="geometry" />
        </mxCell>
        <mxCell id="gtd3gg2QgJ_gOTGWygLw-2" value="" style="ellipse;whiteSpace=wrap;html=1;aspect=fixed;fontFamily=Times New Roman;" parent="1" vertex="1">
          <mxGeometry x="380" y="400" width="40" height="40" as="geometry" />
        </mxCell>
        <mxCell id="gtd3gg2QgJ_gOTGWygLw-10" value="" style="endArrow=none;html=1;rounded=0;fontFamily=Times New Roman;" parent="1" target="gtd3gg2QgJ_gOTGWygLw-7" edge="1">
          <mxGeometry width="50" height="50" relative="1" as="geometry">
            <mxPoint x="400" y="440" as="sourcePoint" />
            <mxPoint x="450" y="460" as="targetPoint" />
            <Array as="points">
              <mxPoint x="430" y="470" />
            </Array>
          </mxGeometry>
        </mxCell>
        <mxCell id="sD3pybmn06e3ip4XcGQT-13" value="" style="endArrow=none;html=1;rounded=0;entryX=0;entryY=1;entryDx=0;entryDy=0;fillColor=#ffe6cc;strokeColor=#d79b00;fontFamily=Times New Roman;" parent="1" target="gtd3gg2QgJ_gOTGWygLw-7" edge="1">
          <mxGeometry width="50" height="50" relative="1" as="geometry">
            <mxPoint x="350" y="510" as="sourcePoint" />
            <mxPoint x="350" y="405" as="targetPoint" />
          </mxGeometry>
        </mxCell>
        <mxCell id="sD3pybmn06e3ip4XcGQT-16" value="" style="endArrow=none;html=1;rounded=0;entryX=0;entryY=1;entryDx=0;entryDy=0;fillColor=#ffe6cc;strokeColor=#d79b00;fontFamily=Times New Roman;" parent="1" edge="1">
          <mxGeometry width="50" height="50" relative="1" as="geometry">
            <mxPoint x="520" y="490" as="sourcePoint" />
            <mxPoint x="520" y="450" as="targetPoint" />
          </mxGeometry>
        </mxCell>
        <mxCell id="sD3pybmn06e3ip4XcGQT-17" value="" style="endArrow=none;html=1;rounded=0;entryX=0;entryY=1;entryDx=0;entryDy=0;fillColor=#ffe6cc;strokeColor=#d79b00;fontFamily=Times New Roman;" parent="1" edge="1">
          <mxGeometry width="50" height="50" relative="1" as="geometry">
            <mxPoint x="500" y="510" as="sourcePoint" />
            <mxPoint x="500" y="470" as="targetPoint" />
          </mxGeometry>
        </mxCell>
        <mxCell id="sD3pybmn06e3ip4XcGQT-18" value="" style="endArrow=classic;html=1;rounded=0;fontFamily=Times New Roman;exitX=0;exitY=0.5;exitDx=0;exitDy=0;" parent="1" edge="1" source="sD3pybmn06e3ip4XcGQT-29">
          <mxGeometry width="50" height="50" relative="1" as="geometry">
            <mxPoint x="520" y="430" as="sourcePoint" />
            <mxPoint x="470" y="455" as="targetPoint" />
          </mxGeometry>
        </mxCell>
        <mxCell id="sD3pybmn06e3ip4XcGQT-19" value="" style="endArrow=classic;html=1;rounded=0;fontFamily=Times New Roman;exitX=0;exitY=0.75;exitDx=0;exitDy=0;" parent="1" edge="1" source="sD3pybmn06e3ip4XcGQT-27">
          <mxGeometry width="50" height="50" relative="1" as="geometry">
            <mxPoint x="500" y="380" as="sourcePoint" />
            <mxPoint x="470" y="410" as="targetPoint" />
          </mxGeometry>
        </mxCell>
        <mxCell id="sD3pybmn06e3ip4XcGQT-20" value="" style="endArrow=classic;html=1;rounded=0;fontFamily=Times New Roman;exitX=1;exitY=0.75;exitDx=0;exitDy=0;" parent="1" source="sD3pybmn06e3ip4XcGQT-28" edge="1">
          <mxGeometry width="50" height="50" relative="1" as="geometry">
            <mxPoint x="350" y="425" as="sourcePoint" />
            <mxPoint x="380" y="455" as="targetPoint" />
          </mxGeometry>
        </mxCell>
        <mxCell id="sD3pybmn06e3ip4XcGQT-25" value="" style="endArrow=none;html=1;rounded=0;exitX=0.106;exitY=1.011;exitDx=0;exitDy=0;exitPerimeter=0;startArrow=none;fontFamily=Times New Roman;" parent="1" source="sD3pybmn06e3ip4XcGQT-22" edge="1">
          <mxGeometry width="50" height="50" relative="1" as="geometry">
            <mxPoint x="428.02" y="469.9999999999999" as="sourcePoint" />
            <mxPoint x="450" y="459.78" as="targetPoint" />
          </mxGeometry>
        </mxCell>
        <mxCell id="sD3pybmn06e3ip4XcGQT-22" value="" style="whiteSpace=wrap;html=1;aspect=fixed;fillColor=#58e151;strokeColor=#82b366;fontFamily=Times New Roman;" parent="1" vertex="1">
          <mxGeometry x="445" y="455" width="10" height="10" as="geometry" />
        </mxCell>
        <mxCell id="sD3pybmn06e3ip4XcGQT-26" value="" style="endArrow=none;html=1;rounded=0;exitX=0.106;exitY=1.011;exitDx=0;exitDy=0;exitPerimeter=0;fontFamily=Times New Roman;" parent="1" target="sD3pybmn06e3ip4XcGQT-22" edge="1">
          <mxGeometry width="50" height="50" relative="1" as="geometry">
            <mxPoint x="428.02" y="469.9999999999999" as="sourcePoint" />
            <mxPoint x="450" y="459.78" as="targetPoint" />
          </mxGeometry>
        </mxCell>
        <mxCell id="sD3pybmn06e3ip4XcGQT-27" value="&lt;b&gt;[Output] Screen:&lt;/b&gt; &lt;br&gt;Visual Oddball Test displaying blue/red circles" style="text;html=1;strokeColor=none;fillColor=none;align=center;verticalAlign=middle;whiteSpace=wrap;rounded=0;fontSize=9;fontFamily=Times New Roman;" parent="1" vertex="1">
          <mxGeometry x="540" y="360" width="130" height="30" as="geometry" />
        </mxCell>
        <mxCell id="sD3pybmn06e3ip4XcGQT-28" value="&lt;b&gt;&amp;nbsp;[Input] Keyboard:&lt;/b&gt; &lt;br&gt;Dominant hand pressing the left/right arrow key following haptic command" style="text;html=1;strokeColor=none;fillColor=none;align=center;verticalAlign=middle;whiteSpace=wrap;rounded=0;fontSize=9;fontFamily=Times New Roman;" parent="1" vertex="1">
          <mxGeometry x="190" y="425" width="120" height="30" as="geometry" />
        </mxCell>
        <mxCell id="sD3pybmn06e3ip4XcGQT-29" value="&lt;b&gt;[Output] In-hand Haptic Inteface:&lt;/b&gt;&amp;nbsp;&lt;br&gt;Tactile Stimulation on the non-dominant hand (left/right command)" style="text;html=1;strokeColor=none;fillColor=none;align=center;verticalAlign=middle;whiteSpace=wrap;rounded=0;fontSize=9;fontFamily=Times New Roman;" parent="1" vertex="1">
          <mxGeometry x="535" y="417.5" width="140" height="35" as="geometry" />
        </mxCell>
        <mxCell id="sD3pybmn06e3ip4XcGQT-30" value="" style="endArrow=none;html=1;fontFamily=Times New Roman;fontSize=9;curved=1;strokeWidth=4;strokeColor=#ff0000;" parent="1" edge="1">
          <mxGeometry width="50" height="50" relative="1" as="geometry">
            <mxPoint x="380" y="415" as="sourcePoint" />
            <mxPoint x="420" y="415" as="targetPoint" />
            <Array as="points">
              <mxPoint x="380" y="405" />
              <mxPoint x="400" y="395" />
              <mxPoint x="420" y="405" />
            </Array>
          </mxGeometry>
        </mxCell>
        <mxCell id="sD3pybmn06e3ip4XcGQT-31" value="" style="endArrow=classic;html=1;rounded=0;fontFamily=Times New Roman;exitX=0.75;exitY=1;exitDx=0;exitDy=0;" parent="1" edge="1" source="sD3pybmn06e3ip4XcGQT-32">
          <mxGeometry width="50" height="50" relative="1" as="geometry">
            <mxPoint x="330" y="370" as="sourcePoint" />
            <mxPoint x="370" y="410" as="targetPoint" />
          </mxGeometry>
        </mxCell>
        <mxCell id="sD3pybmn06e3ip4XcGQT-32" value="&lt;b&gt;[Input] Brain Computer Interface:&lt;/b&gt;&amp;nbsp;&lt;br&gt;EEG data recorded" style="text;html=1;strokeColor=none;fillColor=none;align=center;verticalAlign=middle;whiteSpace=wrap;rounded=0;fontSize=9;fontFamily=Times New Roman;" parent="1" vertex="1">
          <mxGeometry x="175" y="360" width="165" height="30" as="geometry" />
        </mxCell>
        <mxCell id="TNDbKAJgdfjBq_8o51-B-2" value="Experimental Setup" style="text;html=1;strokeColor=none;fillColor=none;align=center;verticalAlign=middle;whiteSpace=wrap;rounded=0;fontStyle=1;fontFamily=Times New Roman;fontSize=16;" vertex="1" parent="1">
          <mxGeometry x="340" y="330" width="190" height="30" as="geometry" />
        </mxCell>
      </root>
    </mxGraphModel>
  </diagram>
</mxfile>
